<svg xmlns="http://www.w3.org/2000/svg" viewBox="0 0 32 32" width="32" height="32" role="img" aria-label="Parcelka">
  <defs>
    <linearGradient id="pin" x1="0" y1="0" x2="0.9" y2="1">
      <stop offset="0" stop-color="#8CC0FF"/><stop offset="1" stop-color="#2E6FC0"/>
    </linearGradient>
  </defs>
  <path d="M16 3.2c-5.5 0-9.9 4.35-9.9 9.7 0 3.7 2.1 7.05 4.6 9.9 1.9 2.15 3.9 4 5.3 6.3 1.4-2.3 3.4-4.15 5.3-6.3 2.5-2.85 4.6-6.2 4.6-9.9 0-5.35-4.4-9.7-9.9-9.7Z" fill="url(#pin)"/>
  <path d="M8.6 9.8c1.2-2.9 3.8-4.8 6.8-5.1" fill="none" stroke="#FFFFFF" stroke-opacity="0.28" stroke-width="1.5" stroke-linecap="round"/>
  <path d="M11.2 13.5h9.6v6.1h-9.6Z" fill="#FFFFFF"/>
  <path d="M9.7 14.1 16 8.7l6.3 5.4Z" fill="#FFFFFF"/>
  <path d="M14 19.6v-3.4a2 2 0 0 1 4 0v3.4Z" fill="#2E6FC0"/>
  <circle cx="12.9" cy="15.4" r="0.95" fill="#2E6FC0"/>
</svg>
